<?xml version="1.0" encoding="utf-8"?>
<!-- Generator: Adobe Illustrator 26.3.1, SVG Export Plug-In . SVG Version: 6.00 Build 0)  -->
<svg version="1.1" id="Layer_1" xmlns="http://www.w3.org/2000/svg" xmlns:xlink="http://www.w3.org/1999/xlink" x="0px" y="0px"
	 viewBox="0 0 16.51 45" style="enable-background:new 0 0 16.51 45;" xml:space="preserve">
<style type="text/css">
	.st0{fill:#FFFFFF;}
</style>
<g id="Grupo_2526" transform="translate(-199.717 -8.515)">
	<path id="Caminho_1152" class="st0" d="M215.45,44.18c-0.2-0.01-0.4,0.06-0.55,0.2l-6.22,6.22V9.27c0.01-0.42-0.31-0.76-0.73-0.78
		c-0.42-0.02-0.76,0.31-0.78,0.73c0,0.02,0,0.04,0,0.05V50.6L201,44.43c-0.29-0.29-0.76-0.29-1.05,0s-0.29,0.76,0,1.05l0,0
		l7.48,7.47l0,0l0.55,0.55l0.5-0.55l0,0l7.53-7.47c0.29-0.28,0.3-0.74,0.02-1.03c-0.01-0.01-0.02-0.02-0.02-0.03
		C215.86,44.28,215.66,44.19,215.45,44.18z"/>
</g>
</svg>
